# xmcd
#
# Track frame offsets:
#	150
#	23864
#	35393
#	56326
#	74114
#	95331
#	114685
#	124072
#	137965
#	150848
#	165034
#	183900
#	208665
#	221226
#	238376
#	258077
#
# Disc length: 3736 seconds
# Revision: 0
# Processed by: cddbd v1.5.2PL0 Copyright (c) Steve Scherf et al.
# Submitted via: dBpowerAMP V12.0
#
DISCID=e00e9610
DTITLE=Moving Blues - Movin' In Time
DYEAR=2011
DGENRE=Blues
TTITLE0=The Way You Did
TTITLE1=Come Take A Lookie
TTITLE2=Where You Been?
TTITLE3=Don't Go Judging (I'm The Taxman)
TTITLE4=Insomnia Blues
TTITLE5=Carolynn
TTITLE6=She's Got A High Butt Crack
TTITLE7=Whole Lotta Leverage
TTITLE8=Don't Want To Have To
TTITLE9=What's Your Name
TTITLE10=You Are Here (I Miss You)
TTITLE11=Blues for the Vitaminless Food
TTITLE12=I'm Laughing (Death Bed)
TTITLE13=I Don't Fold No Dishrags
TTITLE14=Her Heart Of Gold
TTITLE15=I Dream That You'll Be Mine Again
EXTD=
EXTT0=
EXTT1=
EXTT2=
EXTT3=
EXTT4=
EXTT5=
EXTT6=
EXTT7=
EXTT8=
EXTT9=
EXTT10=
EXTT11=
EXTT12=
EXTT13=
EXTT14=
EXTT15=
PLAYORDER=
